# Generated by 3Dart
o edge
v 9.0 -0.5 8.95
vn 1.0 0.0 0.0
v 9.0 -0.5 -0.95
vn 1.0 0.0 0.0
v 8.95 -0.5 -1.0
vn 0.0 0.0 -1.0
v -0.95 -0.5 -1.0
vn 0.0 0.0 -1.0
v -1.0 -0.5 -0.95
vn -1.0 0.0 0.0
v -1.0 -0.5 8.95
vn -1.0 0.0 0.0
v -0.95 -0.5 9.0
vn 0.0 0.0 1.0
v 8.95 -0.5 9.0
vn 0.0 0.0 1.0
v 9.0 -0.05 8.95
vn 1.0 0.0 0.0
v 9.0 -0.05 -0.95
vn 1.0 0.0 0.0
v 8.95 -0.05 -1.0
vn 0.0 0.0 -1.0
v -0.95 -0.05 -1.0
vn 0.0 0.0 -1.0
v -1.0 -0.05 -0.95
vn -1.0 0.0 0.0
v -1.0 -0.05 8.95
vn -1.0 0.0 0.0
v -0.95 -0.05 9.0
vn 0.0 0.0 1.0
v 8.95 -0.05 9.0
vn 0.0 0.0 1.0
v 8.95 0.0 8.95
vn 0.0 1.0 0.0
v 8.95 0.0 -0.95
vn 0.0 1.0 0.0
v -0.95 0.0 -0.95
vn 0.0 1.0 0.0
v -0.95 0.0 8.95
vn 0.0 1.0 0.0
v 8.05 0.0 8.05
vn 0.0 1.0 0.0
v 8.05 0.0 -0.05
vn 0.0 1.0 0.0
v -0.05 0.0 -0.05
vn 0.0 1.0 0.0
v -0.05 0.0 8.05
vn 0.0 1.0 0.0
v 7.95 -0.1 7.95
vn -0.5 0.5 -0.5
v 7.95 -0.1 0.05
vn -0.5 0.5 0.5
v 0.05 -0.1 0.05
vn 0.5 0.5 0.5
v 0.05 -0.1 7.95
vn 0.5 0.5 -0.5
f 1//1 10//10 9//9
f 10//10 1//1 2//2
f 2//2 11//11 10//10
f 11//11 2//2 3//3
f 3//3 12//12 11//11
f 12//12 3//3 4//4
f 4//4 13//13 12//12
f 13//13 4//4 5//5
f 5//5 14//14 13//13
f 14//14 5//5 6//6
f 6//6 15//15 14//14
f 15//15 6//6 7//7
f 7//7 16//16 15//15
f 16//16 7//7 8//8
f 8//8 9//9 16//16
f 9//9 8//8 1//1
f 9//9 18//18 17//17
f 18//18 9//9 10//10
f 10//10 11//11 18//18
f 11//11 19//19 18//18
f 19//19 11//11 12//12
f 12//12 13//13 19//19
f 13//13 20//20 19//19
f 20//20 13//13 14//14
f 14//14 15//15 20//20
f 15//15 17//17 20//20
f 17//17 15//15 16//16
f 16//16 9//9 17//17
f 17//17 22//22 21//21
f 22//22 17//17 18//18
f 18//18 23//23 22//22
f 23//23 18//18 19//19
f 19//19 24//24 23//23
f 24//24 19//19 20//20
f 20//20 21//21 24//24
f 21//21 20//20 17//17
f 21//21 26//26 25//25
f 26//26 21//21 22//22
f 22//22 27//27 26//26
f 27//27 22//22 23//23
f 23//23 28//28 27//27
f 28//28 23//23 24//24
f 24//24 25//25 28//28
f 25//25 24//24 21//21